<svg width="20" height="20" viewBox="0 0 20 20" fill="none" xmlns="http://www.w3.org/2000/svg">
<path fill-rule="evenodd" clip-rule="evenodd" d="M15.4496 5.55299C15.4496 6.10534 15.0018 6.55299 14.4496 6.55299C13.8974 6.55299 13.4496 6.10534 13.4496 5.55299C13.4496 5.00065 13.8974 4.55299 14.4496 4.55299C15.0019 4.55299 15.4496 5.00065 15.4496 5.55299ZM10.0013 12.779C8.46719 12.779 7.22357 11.5354 7.22357 10.0013C7.22357 8.46718 8.46719 7.22356 10.0013 7.22356C11.5354 7.22356 12.779 8.46718 12.779 10.0013C12.779 11.5354 11.5354 12.779 10.0013 12.779ZM10.0013 5.722C7.63789 5.722 5.722 7.63789 5.722 10.0013C5.722 12.3647 7.63789 14.2805 10.0013 14.2805C12.3647 14.2805 14.2806 12.3647 14.2806 10.0013C14.2806 7.63789 12.3647 5.722 10.0013 5.722ZM10.0013 3.16953C12.2264 3.16953 12.49 3.17799 13.3686 3.2181C14.1811 3.25521 14.6224 3.39088 14.916 3.50507C15.3049 3.65625 15.5825 3.83685 15.8742 4.12851C16.1659 4.42005 16.3465 4.69765 16.4976 5.08672C16.6117 5.38034 16.7475 5.82161 16.7846 6.63411C16.8247 7.51289 16.8332 7.77643 16.8332 10.0016C16.8332 12.2266 16.8247 12.4902 16.7846 13.3688C16.7475 14.1813 16.6118 14.6226 16.4976 14.9162C16.3465 15.3052 16.1659 15.5828 15.8742 15.8744C15.5827 16.1661 15.3051 16.3467 14.916 16.4979C14.6224 16.6119 14.1811 16.7477 13.3686 16.7848C12.49 16.8249 12.2264 16.8334 10.0013 16.8334C7.77604 16.8334 7.5125 16.8249 6.63385 16.7848C5.82135 16.7477 5.38008 16.6121 5.08646 16.4979C4.69753 16.3467 4.41992 16.1661 4.12825 15.8744C3.83672 15.5829 3.65599 15.3053 3.50482 14.9162C3.39075 14.6226 3.25495 14.1813 3.21784 13.3688C3.17773 12.4901 3.16927 12.2265 3.16927 10.0016C3.16927 7.77643 3.17773 7.51289 3.21784 6.63411C3.25495 5.82161 3.39062 5.38034 3.50482 5.08672C3.65599 4.69778 3.83659 4.42018 4.12825 4.12851C4.41979 3.83685 4.69739 3.65625 5.08646 3.50507C5.38008 3.39101 5.82135 3.25521 6.63385 3.2181C7.51263 3.17799 7.77617 3.16953 10.0013 3.16953ZM10.0013 1.66797C7.73815 1.66797 7.4543 1.6776 6.56549 1.7181C5.67851 1.75859 5.07266 1.89948 4.54271 2.10547C3.99466 2.31836 3.52995 2.60338 3.06667 3.06666C2.60338 3.52994 2.31836 3.99466 2.10547 4.5427C1.89948 5.07278 1.75859 5.67851 1.7181 6.56549C1.6776 7.45429 1.66797 7.73815 1.66797 10.0013C1.66797 12.2644 1.6776 12.5483 1.7181 13.4371C1.75859 14.324 1.89948 14.9298 2.10547 15.4598C2.31836 16.0079 2.60338 16.4726 3.06667 16.9359C3.52995 17.3992 3.99466 17.6842 4.54271 17.8972C5.07279 18.1032 5.67851 18.244 6.56549 18.2845C7.4543 18.3249 7.73815 18.3347 10.0013 18.3347C12.2644 18.3347 12.5483 18.3249 13.4371 18.2845C14.3241 18.244 14.9298 18.1032 15.4599 17.8972C16.0079 17.6842 16.4726 17.3992 16.9359 16.9359C17.3992 16.4726 17.6841 16.0079 17.8971 15.4598C18.1031 14.9298 18.244 14.324 18.2845 13.4371C18.325 12.5483 18.3346 12.2644 18.3346 10.0013C18.3346 7.73815 18.325 7.45429 18.2845 6.56549C18.244 5.67851 18.1031 5.07278 17.8971 4.5427C17.6841 3.99466 17.3992 3.52994 16.9359 3.06666C16.4726 2.60338 16.0079 2.31849 15.4599 2.10547C14.9298 1.89948 14.3241 1.75859 13.4371 1.7181C12.5483 1.6776 12.2644 1.66797 10.0013 1.66797Z" fill="url(#paint0_linear_8508_9423)"/>
<path fill-rule="evenodd" clip-rule="evenodd" d="M15.4496 5.55299C15.4496 6.10534 15.0018 6.55299 14.4496 6.55299C13.8974 6.55299 13.4496 6.10534 13.4496 5.55299C13.4496 5.00065 13.8974 4.55299 14.4496 4.55299C15.0019 4.55299 15.4496 5.00065 15.4496 5.55299ZM10.0013 12.779C8.46719 12.779 7.22357 11.5354 7.22357 10.0013C7.22357 8.46718 8.46719 7.22356 10.0013 7.22356C11.5354 7.22356 12.779 8.46718 12.779 10.0013C12.779 11.5354 11.5354 12.779 10.0013 12.779ZM10.0013 5.722C7.63789 5.722 5.722 7.63789 5.722 10.0013C5.722 12.3647 7.63789 14.2805 10.0013 14.2805C12.3647 14.2805 14.2806 12.3647 14.2806 10.0013C14.2806 7.63789 12.3647 5.722 10.0013 5.722ZM10.0013 3.16953C12.2264 3.16953 12.49 3.17799 13.3686 3.2181C14.1811 3.25521 14.6224 3.39088 14.916 3.50507C15.3049 3.65625 15.5825 3.83685 15.8742 4.12851C16.1659 4.42005 16.3465 4.69765 16.4976 5.08672C16.6117 5.38034 16.7475 5.82161 16.7846 6.63411C16.8247 7.51289 16.8332 7.77643 16.8332 10.0016C16.8332 12.2266 16.8247 12.4902 16.7846 13.3688C16.7475 14.1813 16.6118 14.6226 16.4976 14.9162C16.3465 15.3052 16.1659 15.5828 15.8742 15.8744C15.5827 16.1661 15.3051 16.3467 14.916 16.4979C14.6224 16.6119 14.1811 16.7477 13.3686 16.7848C12.49 16.8249 12.2264 16.8334 10.0013 16.8334C7.77604 16.8334 7.5125 16.8249 6.63385 16.7848C5.82135 16.7477 5.38008 16.6121 5.08646 16.4979C4.69753 16.3467 4.41992 16.1661 4.12825 15.8744C3.83672 15.5829 3.65599 15.3053 3.50482 14.9162C3.39075 14.6226 3.25495 14.1813 3.21784 13.3688C3.17773 12.4901 3.16927 12.2265 3.16927 10.0016C3.16927 7.77643 3.17773 7.51289 3.21784 6.63411C3.25495 5.82161 3.39062 5.38034 3.50482 5.08672C3.65599 4.69778 3.83659 4.42018 4.12825 4.12851C4.41979 3.83685 4.69739 3.65625 5.08646 3.50507C5.38008 3.39101 5.82135 3.25521 6.63385 3.2181C7.51263 3.17799 7.77617 3.16953 10.0013 3.16953ZM10.0013 1.66797C7.73815 1.66797 7.4543 1.6776 6.56549 1.7181C5.67851 1.75859 5.07266 1.89948 4.54271 2.10547C3.99466 2.31836 3.52995 2.60338 3.06667 3.06666C2.60338 3.52994 2.31836 3.99466 2.10547 4.5427C1.89948 5.07278 1.75859 5.67851 1.7181 6.56549C1.6776 7.45429 1.66797 7.73815 1.66797 10.0013C1.66797 12.2644 1.6776 12.5483 1.7181 13.4371C1.75859 14.324 1.89948 14.9298 2.10547 15.4598C2.31836 16.0079 2.60338 16.4726 3.06667 16.9359C3.52995 17.3992 3.99466 17.6842 4.54271 17.8972C5.07279 18.1032 5.67851 18.244 6.56549 18.2845C7.4543 18.3249 7.73815 18.3347 10.0013 18.3347C12.2644 18.3347 12.5483 18.3249 13.4371 18.2845C14.3241 18.244 14.9298 18.1032 15.4599 17.8972C16.0079 17.6842 16.4726 17.3992 16.9359 16.9359C17.3992 16.4726 17.6841 16.0079 17.8971 15.4598C18.1031 14.9298 18.244 14.324 18.2845 13.4371C18.325 12.5483 18.3346 12.2644 18.3346 10.0013C18.3346 7.73815 18.325 7.45429 18.2845 6.56549C18.244 5.67851 18.1031 5.07278 17.8971 4.5427C17.6841 3.99466 17.3992 3.52994 16.9359 3.06666C16.4726 2.60338 16.0079 2.31849 15.4599 2.10547C14.9298 1.89948 14.3241 1.75859 13.4371 1.7181C12.5483 1.6776 12.2644 1.66797 10.0013 1.66797Z" fill="#5D5FEF"/>
<defs>
<linearGradient id="paint0_linear_8508_9423" x1="-17.1394" y1="18.3924" x2="25.4522" y2="18.3924" gradientUnits="userSpaceOnUse">
<stop stop-color="#FFB140"/>
<stop offset="0.2559" stop-color="#FF5445"/>
<stop offset="0.599" stop-color="#FC2B82"/>
<stop offset="1" stop-color="#8E40B7"/>
</linearGradient>
</defs>
</svg>
