<svg width="20" height="20" viewBox="0 0 20 20" fill="none" xmlns="http://www.w3.org/2000/svg">
<path d="M1.87891 7.08594H5.45161V18.3304H1.87891V7.08594Z" fill="#5D5FEF"/>
<path d="M3.68911 1.66797C2.46702 1.66797 1.66797 2.50745 1.66797 3.61084C1.66797 4.6899 2.44324 5.55332 3.64219 5.55332H3.66546C4.91146 5.55332 5.68686 4.6899 5.68686 3.61084C5.66359 2.50745 4.91146 1.66797 3.68911 1.66797Z" fill="#5D5FEF"/>
<path d="M14.2185 6.82422C12.3229 6.82422 11.4735 7.91405 10.9987 8.68037V7.08813H7.42578V18.3326H10.9985V12.0532C10.9985 11.7171 11.0218 11.3815 11.1162 11.1411C11.3744 10.4697 11.9623 9.77432 12.9492 9.77432C14.242 9.77432 14.7592 10.8055 14.7592 12.3171V18.3326H18.3316V11.8852C18.3316 8.43136 16.569 6.82422 14.2185 6.82422Z" fill="#5D5FEF"/>
</svg>
